# xmcd
#
# Track frame offsets:
#	150
#	15747
#	29849
#	43132
#	56783
#	68461
#	81706
#	97699
#	114255
#	135041
#	150588
#	170198
#	184727
#	198049
#	221406
#	237545
#
# Disc length: 3364 seconds
#
# Revision: 0
# Processed by: cddbd v1.5.2PL0 Copyright (c) Steve Scherf et al.
# Submitted via: EasyCDDAExtractor 10.0.2.1
#
DISCID=d60d2210
DTITLE=Ronan and Ronaldo - Ao Vivo
DYEAR=2011
DGENRE=Sertanejo
TTITLE0=Sofre Bebe E Chora
TTITLE1=Pra Sempre Vou Te Amar
TTITLE2=É Agora Ou Nunca
TTITLE3=Você Pisou Na Bola
TTITLE4=Tá Escrito No Meu Olhar
TTITLE5=Tô Em Outra
TTITLE6=Preciso De Você
TTITLE7=Paraíso
TTITLE8=Mais Uma Noite Sem Você and Fogo De Amor
TTITLE9=Saudade
TTITLE10=Agora É Pra Valer
TTITLE11=Bitoca Nas Meninas
TTITLE12=Esquece O Medo
TTITLE13=Blusa Vermelha and Fio De Cabelo and Ainda Ontem Chorei De Saudade
TTITLE14=Me Leva Pra Casa
TTITLE15=Amanhã Sei Lá
EXTD=
EXTT0=
EXTT1=
EXTT2=
EXTT3=
EXTT4=
EXTT5=
EXTT6=
EXTT7=
EXTT8=
EXTT9=
EXTT10=
EXTT11=
EXTT12=
EXTT13=
EXTT14=
EXTT15=
PLAYORDER=
